<svg width="168" height="105" viewBox="0 0 168 105" fill="none" xmlns="http://www.w3.org/2000/svg">
<path d="M8.48961 102.757C-3.05429 108.529 -0.370839 95.5419 2.41387 88.327C4.75892 82.2513 9.24896 79.9729 12.6666 84.1499C16.0842 88.327 11.1476 94.7825 19.5018 90.6055C27.8559 86.4284 22.9195 95.5419 8.48961 102.757Z" fill="#F0F4FF"/>
<path d="M8.48961 75.416C-3.05429 81.188 -0.370839 68.2011 2.41387 60.9862C4.75892 54.9105 9.24896 52.632 12.6666 56.8091C16.0842 60.9862 11.1476 67.4417 19.5018 63.2647C27.8559 59.0876 22.9195 68.2011 8.48961 75.416Z" fill="#F0F4FF"/>
<path d="M8.48961 48.0752C-3.05429 53.8472 -0.370839 40.8603 2.41387 33.6453C4.75892 27.5697 9.24896 25.2912 12.6666 29.4683C16.0842 33.6454 11.1476 40.1009 19.5018 35.9238C27.8559 31.7468 22.9195 40.8603 8.48961 48.0752Z" fill="#F0F4FF"/>
<path d="M8.48961 20.7344C-3.05429 26.5063 -0.370839 13.5194 2.41387 6.30451C4.75892 0.228867 9.24896 -2.0496 12.6666 2.12747C16.0842 6.30454 11.1476 12.7601 19.5018 8.58301C27.8559 4.40595 22.9195 13.5194 8.48961 20.7344Z" fill="#F0F4FF"/>
<path d="M37.3495 102.757C25.8056 108.529 28.489 95.5419 31.2737 88.327C33.6188 82.2513 38.1088 79.9729 41.5264 84.1499C44.944 88.327 40.0075 94.7825 48.3616 90.6055C56.7158 86.4284 51.7793 95.5419 37.3495 102.757Z" fill="#F0F4FF"/>
<path d="M37.3495 75.416C25.8056 81.188 28.489 68.2011 31.2737 60.9862C33.6188 54.9105 38.1088 52.632 41.5264 56.8091C44.944 60.9862 40.0075 67.4417 48.3616 63.2647C56.7158 59.0876 51.7793 68.2011 37.3495 75.416Z" fill="#F0F4FF"/>
<path d="M37.3495 48.0752C25.8056 53.8472 28.489 40.8603 31.2737 33.6453C33.6188 27.5697 38.1088 25.2912 41.5264 29.4683C44.944 33.6454 40.0075 40.1009 48.3616 35.9238C56.7158 31.7468 51.7793 40.8603 37.3495 48.0752Z" fill="#F0F4FF"/>
<path d="M37.3495 20.7344C25.8056 26.5063 28.489 13.5194 31.2737 6.30451C33.6188 0.228867 38.1088 -2.0496 41.5264 2.12747C44.944 6.30454 40.0075 12.7601 48.3616 8.58301C56.7158 4.40595 51.7793 13.5194 37.3495 20.7344Z" fill="#F0F4FF"/>
<path d="M66.2088 102.757C54.665 108.529 57.3484 95.5419 60.1331 88.327C62.4782 82.2513 66.9682 79.9729 70.3858 84.1499C73.8034 88.327 68.8669 94.7825 77.221 90.6055C85.5751 86.4284 80.6387 95.5419 66.2088 102.757Z" fill="#F0F4FF"/>
<path d="M66.2088 75.416C54.665 81.188 57.3484 68.2011 60.1331 60.9862C62.4782 54.9105 66.9682 52.632 70.3858 56.8091C73.8034 60.9862 68.8669 67.4417 77.221 63.2647C85.5751 59.0876 80.6387 68.2011 66.2088 75.416Z" fill="#F0F4FF"/>
<path d="M66.2088 48.0752C54.665 53.8472 57.3484 40.8603 60.1331 33.6453C62.4782 27.5697 66.9682 25.2912 70.3858 29.4683C73.8034 33.6454 68.8669 40.1009 77.221 35.9238C85.5751 31.7468 80.6387 40.8603 66.2088 48.0752Z" fill="#F0F4FF"/>
<path d="M66.2088 20.7344C54.665 26.5063 57.3484 13.5194 60.1331 6.30451C62.4782 0.228867 66.9682 -2.0496 70.3858 2.12747C73.8034 6.30454 68.8669 12.7601 77.221 8.58301C85.5751 4.40595 80.6387 13.5194 66.2088 20.7344Z" fill="#F0F4FF"/>
<path d="M95.0687 102.757C83.5248 108.529 86.2083 95.5419 88.993 88.327C91.338 82.2513 95.8281 79.9729 99.2457 84.1499C102.663 88.327 97.7267 94.7825 106.081 90.6055C114.435 86.4284 109.499 95.5419 95.0687 102.757Z" fill="#F0F4FF"/>
<path d="M95.0687 75.416C83.5248 81.188 86.2083 68.2011 88.993 60.9862C91.338 54.9105 95.8281 52.632 99.2457 56.8091C102.663 60.9862 97.7267 67.4417 106.081 63.2647C114.435 59.0876 109.499 68.2011 95.0687 75.416Z" fill="#F0F4FF"/>
<path d="M95.0687 48.0752C83.5248 53.8472 86.2083 40.8603 88.993 33.6453C91.338 27.5697 95.8281 25.2912 99.2457 29.4683C102.663 33.6454 97.7267 40.1009 106.081 35.9238C114.435 31.7468 109.499 40.8603 95.0687 48.0752Z" fill="#F0F4FF"/>
<path d="M95.0687 20.7344C83.5248 26.5063 86.2083 13.5194 88.993 6.30451C91.338 0.228867 95.8281 -2.0496 99.2457 2.12747C102.663 6.30454 97.7267 12.7601 106.081 8.58301C114.435 4.40595 109.499 13.5194 95.0687 20.7344Z" fill="#F0F4FF"/>
<path d="M123.929 102.757C112.385 108.529 115.068 95.5419 117.853 88.327C120.198 82.2513 124.688 79.9729 128.106 84.1499C131.523 88.327 126.587 94.7825 134.941 90.6055C143.295 86.4284 138.358 95.5419 123.929 102.757Z" fill="#F0F4FF"/>
<path d="M123.929 75.416C112.385 81.188 115.068 68.2011 117.853 60.9862C120.198 54.9105 124.688 52.632 128.106 56.8091C131.523 60.9862 126.587 67.4417 134.941 63.2647C143.295 59.0876 138.358 68.2011 123.929 75.416Z" fill="#F0F4FF"/>
<path d="M123.929 48.0752C112.385 53.8472 115.068 40.8603 117.853 33.6453C120.198 27.5697 124.688 25.2912 128.106 29.4683C131.523 33.6454 126.587 40.1009 134.941 35.9238C143.295 31.7468 138.358 40.8603 123.929 48.0752Z" fill="#F0F4FF"/>
<path d="M123.929 20.7344C112.385 26.5063 115.068 13.5194 117.853 6.30451C120.198 0.228867 124.688 -2.0496 128.106 2.12747C131.523 6.30454 126.587 12.7601 134.941 8.58301C143.295 4.40595 138.358 13.5194 123.929 20.7344Z" fill="#F0F4FF"/>
<path d="M152.788 102.757C141.245 108.529 143.928 95.5419 146.713 88.327C149.058 82.2513 153.548 79.9729 156.965 84.1499C160.383 88.327 155.446 94.7825 163.801 90.6055C172.155 86.4284 167.218 95.5419 152.788 102.757Z" fill="#F0F4FF"/>
<path d="M152.788 75.416C141.245 81.188 143.928 68.2011 146.713 60.9862C149.058 54.9105 153.548 52.632 156.965 56.8091C160.383 60.9862 155.446 67.4417 163.801 63.2647C172.155 59.0876 167.218 68.2011 152.788 75.416Z" fill="#F0F4FF"/>
<path d="M152.788 48.0752C141.245 53.8472 143.928 40.8603 146.713 33.6453C149.058 27.5697 153.548 25.2912 156.965 29.4683C160.383 33.6454 155.446 40.1009 163.801 35.9238C172.155 31.7468 167.218 40.8603 152.788 48.0752Z" fill="#F0F4FF"/>
<path d="M152.788 20.7344C141.245 26.5063 143.928 13.5194 146.713 6.30451C149.058 0.228867 153.548 -2.0496 156.965 2.12747C160.383 6.30454 155.446 12.7601 163.801 8.58301C172.155 4.40595 167.218 13.5194 152.788 20.7344Z" fill="#F0F4FF"/>
</svg>
