<svg width="1408" height="520" viewBox="0 0 1408 520" fill="none" xmlns="http://www.w3.org/2000/svg">
<path d="M0 32C0 16.9151 0 9.37258 4.68629 4.68629C9.37258 0 16.9151 0 32 0H1376C1391.08 0 1398.63 0 1403.31 4.68629C1408 9.37258 1408 16.9151 1408 32V488C1408 503.085 1408 510.627 1403.31 515.314C1398.63 520 1391.08 520 1376 520H32C16.915 520 9.37258 520 4.68629 515.314C0 510.627 0 503.085 0 488V32Z" fill="url(#paint0_linear_342_3863)"/>
<defs>
<linearGradient id="paint0_linear_342_3863" x1="704" y1="0" x2="704" y2="520" gradientUnits="userSpaceOnUse">
<stop stop-color="#2361FF" stop-opacity="0"/>
<stop offset="1" stop-color="#2361FF" stop-opacity="0.12"/>
</linearGradient>
</defs>
</svg>
