<svg width="56" height="56" viewBox="0 0 56 56" fill="none" xmlns="http://www.w3.org/2000/svg">
<rect width="56" height="56" fill="#1E1E1E"/>
<rect width="1440" height="2758" transform="translate(-176 -1696)" fill="white"/>
<g filter="url(#filter0_f_342_1155)">
<rect x="8" y="-6" width="296" height="112" rx="24" fill="#011A59" fill-opacity="0.1"/>
</g>
<rect x="-24" y="-24" width="360" height="120" rx="24" fill="white"/>
<rect width="56" height="56" rx="12" fill="#FD4C77"/>
<g filter="url(#filter1_b_342_1155)">
<rect x="8" y="8" width="56" height="56" rx="12" fill="white" fill-opacity="0.31"/>
<rect x="8.5" y="8.5" width="55" height="55" rx="11.5" stroke="url(#paint0_linear_342_1155)"/>
</g>
<path d="M45.1139 32.1534C46.1535 31.1137 46.1535 29.4425 46.1535 26.0965C46.1535 22.7505 46.1535 21.0793 45.1139 20.0396M45.1139 32.1534C44.0743 33.193 42.403 33.193 39.057 33.193H31.9605C28.6145 33.193 26.9433 33.193 25.9037 32.1534M45.1139 20.0396C44.0743 19 42.403 19 39.057 19H31.9605C28.6145 19 26.9433 19 25.9037 20.0396M25.9037 20.0396C24.864 21.0793 24.864 22.7505 24.864 26.0965C24.864 29.4425 24.864 31.1137 25.9037 32.1534" stroke="white" stroke-width="1.5"/>
<path opacity="0.5" d="M37.2826 26.0964C37.2826 26.5669 37.0957 27.0182 36.763 27.3509C36.4303 27.6836 35.979 27.8705 35.5085 27.8705C35.038 27.8705 34.5867 27.6836 34.254 27.3509C33.9213 27.0182 33.7344 26.5669 33.7344 26.0964C33.7344 25.6259 33.9213 25.1746 34.254 24.8419C34.5867 24.5092 35.038 24.3223 35.5085 24.3223C35.979 24.3223 36.4303 24.5092 36.763 24.8419C37.0957 25.1746 37.2826 25.6259 37.2826 26.0964Z" stroke="white" stroke-width="1.5"/>
<path opacity="0.5" d="M46.1534 24.3224C44.7419 24.3224 43.3881 23.7616 42.39 22.7635C41.3918 21.7654 40.8311 20.4116 40.8311 19M46.1534 27.8706C44.7419 27.8706 43.3881 28.4314 42.39 29.4295C41.3918 30.4277 40.8311 31.7814 40.8311 33.193M24.8639 24.3224C26.2755 24.3224 27.6293 23.7616 28.6274 22.7635C29.6256 21.7654 30.1863 20.4116 30.1863 19M24.8639 27.8706C26.2755 27.8706 27.6293 28.4314 28.6274 29.4295C29.6256 30.4277 30.1863 31.7814 30.1863 33.193M21.3157 51.6226H25.3252C27.1171 51.6226 28.932 51.8107 30.676 52.1691C33.7896 52.8087 36.9932 52.8796 40.1321 52.3784C41.672 52.13 43.1836 51.7486 44.5532 51.0886C45.788 50.4907 47.3013 49.6516 48.3179 48.7095C49.3327 47.7692 50.3901 46.2311 51.1387 45.0282C51.7845 43.9957 51.4723 42.7307 50.4539 41.9625C49.8817 41.5463 49.1923 41.3221 48.4846 41.3221C47.777 41.3221 47.0876 41.5463 46.5154 41.9625L43.3095 44.3842C42.0676 45.3245 40.7104 46.1885 39.0942 46.4457C38.899 46.4759 38.695 46.5043 38.4821 46.5291M38.4821 46.5291C38.4171 46.5367 38.3521 46.5438 38.287 46.5504M38.4821 46.5291C38.7661 46.4523 39.0264 46.306 39.2397 46.1033C39.507 45.8721 39.7253 45.5896 39.8817 45.2725C40.0381 44.9555 40.1294 44.6104 40.1502 44.2575C40.1711 43.9046 40.121 43.5511 40.003 43.2179C39.885 42.8847 39.7015 42.5785 39.4632 42.3173C39.232 42.0607 38.9628 41.8411 38.6649 41.6662C33.7026 38.7052 25.9799 40.9601 21.3157 44.2689M38.4821 46.5291C38.418 46.5431 38.3526 46.5502 38.287 46.5504M38.287 46.5504C37.217 46.6579 36.1391 46.6603 35.0687 46.5575" stroke="white" stroke-width="1.5" stroke-linecap="round"/>
<defs>
<filter id="filter0_f_342_1155" x="-72" y="-86" width="456" height="272" filterUnits="userSpaceOnUse" color-interpolation-filters="sRGB">
<feFlood flood-opacity="0" result="BackgroundImageFix"/>
<feBlend mode="normal" in="SourceGraphic" in2="BackgroundImageFix" result="shape"/>
<feGaussianBlur stdDeviation="40" result="effect1_foregroundBlur_342_1155"/>
</filter>
<filter id="filter1_b_342_1155" x="-15" y="-15" width="102" height="102" filterUnits="userSpaceOnUse" color-interpolation-filters="sRGB">
<feFlood flood-opacity="0" result="BackgroundImageFix"/>
<feGaussianBlur in="BackgroundImageFix" stdDeviation="11.5"/>
<feComposite in2="SourceAlpha" operator="in" result="effect1_backgroundBlur_342_1155"/>
<feBlend mode="normal" in="SourceGraphic" in2="effect1_backgroundBlur_342_1155" result="shape"/>
</filter>
<linearGradient id="paint0_linear_342_1155" x1="11" y1="8" x2="30.5" y2="39.5" gradientUnits="userSpaceOnUse">
<stop stop-color="#CFE0FF"/>
<stop offset="1" stop-color="#CFE0FF" stop-opacity="0"/>
</linearGradient>
</defs>
</svg>
