<svg width="56" height="56" viewBox="0 0 56 56" fill="none" xmlns="http://www.w3.org/2000/svg">
<rect width="56" height="56" fill="#1E1E1E"/>
<rect width="1440" height="2758" transform="translate(-944 -1696)" fill="white"/>
<g filter="url(#filter0_f_342_1155)">
<rect x="8" y="-6" width="296" height="112" rx="24" fill="#011A59" fill-opacity="0.1"/>
</g>
<rect x="-24" y="-24" width="360" height="120" rx="24" fill="white"/>
<rect width="56" height="56" rx="12" fill="#FD4C77"/>
<g filter="url(#filter1_b_342_1155)">
<rect x="8" y="8" width="56" height="56" rx="12" fill="white" fill-opacity="0.31"/>
<rect x="8.5" y="8.5" width="55" height="55" rx="11.5" stroke="url(#paint0_linear_342_1155)"/>
</g>
<path d="M35.9997 32.6666C39.6816 32.6666 42.6663 29.6818 42.6663 25.9999C42.6663 22.318 39.6816 19.3333 35.9997 19.3333C32.3178 19.3333 29.333 22.318 29.333 25.9999C29.333 29.6818 32.3178 32.6666 35.9997 32.6666Z" stroke="white" stroke-width="2.5"/>
<path opacity="0.5" d="M46 30.9998C48.7617 30.9998 51 29.1332 51 26.8332C51 24.5332 48.7617 22.6665 46 22.6665M26 30.9998C23.2383 30.9998 21 29.1332 21 26.8332C21 24.5332 23.2383 22.6665 26 22.6665" stroke="white" stroke-width="2.5" stroke-linecap="round"/>
<path d="M36 50.9998C41.5228 50.9998 46 48.0151 46 44.3332C46 40.6513 41.5228 37.6665 36 37.6665C30.4772 37.6665 26 40.6513 26 44.3332C26 48.0151 30.4772 50.9998 36 50.9998Z" stroke="white" stroke-width="2.5"/>
<path opacity="0.5" d="M49.3332 47.6666C52.2565 47.0249 54.3332 45.4016 54.3332 43.4999C54.3332 41.5983 52.2565 39.9749 49.3332 39.3333M22.6665 47.6666C19.7432 47.0249 17.6665 45.4016 17.6665 43.4999C17.6665 41.5983 19.7432 39.9749 22.6665 39.3333" stroke="white" stroke-width="2.5" stroke-linecap="round"/>
<defs>
<filter id="filter0_f_342_1155" x="-72" y="-86" width="456" height="272" filterUnits="userSpaceOnUse" color-interpolation-filters="sRGB">
<feFlood flood-opacity="0" result="BackgroundImageFix"/>
<feBlend mode="normal" in="SourceGraphic" in2="BackgroundImageFix" result="shape"/>
<feGaussianBlur stdDeviation="40" result="effect1_foregroundBlur_342_1155"/>
</filter>
<filter id="filter1_b_342_1155" x="-15" y="-15" width="102" height="102" filterUnits="userSpaceOnUse" color-interpolation-filters="sRGB">
<feFlood flood-opacity="0" result="BackgroundImageFix"/>
<feGaussianBlur in="BackgroundImageFix" stdDeviation="11.5"/>
<feComposite in2="SourceAlpha" operator="in" result="effect1_backgroundBlur_342_1155"/>
<feBlend mode="normal" in="SourceGraphic" in2="effect1_backgroundBlur_342_1155" result="shape"/>
</filter>
<linearGradient id="paint0_linear_342_1155" x1="11" y1="8" x2="30.5" y2="39.5" gradientUnits="userSpaceOnUse">
<stop stop-color="#CFE0FF"/>
<stop offset="1" stop-color="#CFE0FF" stop-opacity="0"/>
</linearGradient>
</defs>
</svg>
