<svg width="24" height="24" viewBox="0 0 24 24" fill="none" xmlns="http://www.w3.org/2000/svg">
<path opacity="0.5" d="M4 10.143C4 5.646 7.582 2 12 2C16.418 2 20 5.646 20 10.143C20 14.605 17.447 19.813 13.463 21.674C13.0051 21.8884 12.5056 21.9996 12 21.9996C11.4944 21.9996 10.9949 21.8884 10.537 21.674C6.553 19.812 4 14.605 4 10.144V10.143Z" stroke="#111111" stroke-width="1.5"/>
<path d="M9.5 10H14.5M12 12.5V7.5" stroke="#111111" stroke-width="1.5" stroke-linecap="round"/>
<path opacity="0.5" d="M4 10.143C4 5.646 7.582 2 12 2C16.418 2 20 5.646 20 10.143C20 14.605 17.447 19.813 13.463 21.674C13.0051 21.8884 12.5056 21.9996 12 21.9996C11.4944 21.9996 10.9949 21.8884 10.537 21.674C6.553 19.812 4 14.605 4 10.144V10.143Z" stroke="#999FAD" stroke-width="1.5"/>
<circle cx="12" cy="9" r="2.25" stroke="#24272D" stroke-width="1.5"/>
</svg>
