<svg width="24" height="24" viewBox="0 0 24 24" fill="none" xmlns="http://www.w3.org/2000/svg">
<path opacity="0.5" d="M18.0001 6.10205C19.3001 6.22905 20.1751 6.51805 20.8281 7.17205C22.0001 8.34305 22.0001 10.2291 22.0001 14.0001C22.0001 17.7711 22.0001 19.657 20.8281 20.828C19.6571 22 17.7711 22.0001 14.0001 22.0001H10.0001C6.22906 22.0001 4.34306 22 3.17206 20.828C2.00006 19.657 2.00006 17.7711 2.00006 14.0001C2.00006 10.2291 2.00006 8.34305 3.17206 7.17205C3.82506 6.51805 4.70006 6.22905 6.00006 6.10205" stroke="#111111" stroke-width="1.5"/>
<path d="M10.0001 6H14.0001M11.0001 9H13.0001M8.15906 11.8L7.43906 11.2C6.73206 10.61 6.37806 10.315 6.18906 9.912C6.00006 9.508 6.00006 9.048 6.00006 8.126V7C6.00006 4.643 6.00006 3.464 6.73206 2.732C7.46406 2 8.64306 2 11.0001 2H13.0001C15.3571 2 16.5351 2 17.2681 2.732C18.0001 3.464 18.0001 4.643 18.0001 7V8.127C18.0001 9.047 18.0001 9.508 17.8111 9.912C17.6221 10.315 17.2681 10.61 16.5611 11.199L15.8411 11.799C14.0051 13.329 13.0861 14.095 12.0001 14.095C10.9141 14.095 9.99606 13.33 8.15906 11.799V11.8Z" stroke="#111111" stroke-width="1.5" stroke-linecap="round"/>
<path d="M6.00006 10L8.15906 11.8C9.99606 13.33 10.9141 14.095 12.0001 14.095C13.0861 14.095 14.0051 13.33 15.8411 11.799L18.0001 10" stroke="#111111" stroke-width="1.5" stroke-linecap="round"/>
</svg>
