<svg width="24" height="24" viewBox="0 0 24 24" fill="none" xmlns="http://www.w3.org/2000/svg">
<path d="M14.0001 2C14.0001 2 16.2001 2.2 19.0001 5C21.8001 7.8 22.0001 10 22.0001 10M14.2071 5.536C14.2071 5.536 15.1971 5.818 16.6821 7.303C18.1671 8.788 18.4501 9.778 18.4501 9.778" stroke="#111111" stroke-width="1.5" stroke-linecap="round"/>
<path opacity="0.5" d="M10.0381 5.31598L10.6871 6.47898C11.2721 7.52898 11.0371 8.90498 10.1151 9.82798C10.1151 9.82798 8.99509 10.947 11.0251 12.976C13.0521 15.003 14.1721 13.886 14.1721 13.886C15.0951 12.963 16.4721 12.728 17.5211 13.313L18.6841 13.963C20.2691 14.847 20.4561 17.069 19.0631 18.463C18.2261 19.299 17.2001 19.951 16.0671 19.993C14.1591 20.066 10.9181 19.583 7.66709 16.333C4.41709 13.082 3.93409 9.84098 4.00709 7.93298C4.05009 6.79998 4.70109 5.77398 5.53709 4.93698C6.93109 3.54398 9.15309 3.73098 10.0371 5.31698L10.0381 5.31598Z" stroke="#111111" stroke-width="1.5" stroke-linecap="round"/>
</svg>
